<svg width="278" height="278" viewBox="0 0 278 278" fill="none" xmlns="http://www.w3.org/2000/svg">
<rect width="278" height="278" rx="139" fill="#EAE7E0"/>
<path d="M209.723 98.502L239.135 149.5C239.52 150.167 239.038 151 238.269 151H177.713L207.99 98.502C208.375 97.8348 209.338 97.8348 209.723 98.502Z" fill="#DB7B5D"/>
<rect width="54.75" height="54.75" transform="translate(153 79)" fill="#535995"/>
<circle cx="135.75" cy="137.5" r="30.75" fill="#81B39A"/>
<path fill-rule="evenodd" clip-rule="evenodd" d="M107.478 194.349C106.442 196.422 102.728 197.804 101 198.236H116.224C111.301 197.2 110.286 195.213 110.394 194.349V153.859L130.153 198.236L150.884 153.859V194.349C149.588 196.422 146.025 197.804 144.406 198.236H166.756C162.092 198.236 160.494 194.565 160.278 192.73V153.859L162.221 151.267L168.052 149H149.264L133.716 183.336L118.816 149H101L107.478 151.267V194.349ZM111.366 151.267H117.196L132.744 186.575L130.153 192.73L111.366 151.267ZM160.278 151.267H152.504V196.293H157.686V153.859L160.278 151.267Z" fill="#3F3A37" stroke="#3F3A37"/>
<path fill-rule="evenodd" clip-rule="evenodd" d="M44.4785 169.349C43.4419 171.422 39.7276 172.804 38 173.236H53.2244C48.3007 172.2 47.2858 170.213 47.3938 169.349V128.859L67.153 173.236L87.8841 128.859V169.349C86.5884 171.422 83.0253 172.804 81.4056 173.236H103.756C99.0918 173.236 97.4938 169.565 97.2779 167.73V128.859L99.2214 126.267L105.052 124H86.2645L70.7162 158.336L55.8158 124H38L44.4785 126.267V169.349ZM48.3655 126.267H54.1961L69.7444 161.575L67.153 167.73L48.3655 126.267ZM97.2779 126.267H89.5037V171.293H94.6865V128.859L97.2779 126.267Z" fill="#3F3A37" stroke="#3F3A37"/>
<path d="M208.86 190.004L184.704 174.206C183.985 173.736 183.046 174.331 183.166 175.182L187.238 204.164C187.362 205.044 188.485 205.338 189.023 204.632L196.897 194.316C197.046 194.12 197.262 193.987 197.503 193.94L208.502 191.823C209.384 191.653 209.612 190.496 208.86 190.004Z" fill="#EAE7E0" stroke="#3F3A37" stroke-width="2.5"/>
<rect x="179.143" y="171.783" width="12.7498" height="3.96508" rx="1.98254" transform="rotate(-124.067 179.143 171.783)" fill="#3F3A37"/>
<rect x="185" y="170.513" width="12.7498" height="3.96508" rx="1.98254" transform="rotate(-78.9383 185 170.513)" fill="#3F3A37"/>
<rect x="179.43" y="178.708" width="12.7498" height="3.96508" rx="1.98254" transform="rotate(-167.115 179.43 178.708)" fill="#3F3A37"/>
</svg>
