<svg width="210" height="210" viewBox="0 0 210 210" fill="none" xmlns="http://www.w3.org/2000/svg">
<rect width="210" height="210" fill="#EAE7E0"/>
<path d="M175.723 64.502L205.135 115.5C205.52 116.167 205.038 117 204.269 117H143.713L173.99 64.502C174.375 63.8348 175.338 63.8348 175.723 64.502Z" fill="#DB7B5D"/>
<rect width="54.75" height="54.75" transform="translate(119 45)" fill="#535995"/>
<circle cx="101.75" cy="103.5" r="30.75" fill="#81B39A"/>
<path fill-rule="evenodd" clip-rule="evenodd" d="M73.4785 160.349C72.4419 162.422 68.7276 163.804 67 164.236H82.2244C77.3007 163.2 76.2858 161.213 76.3938 160.349V119.859L96.153 164.236L116.884 119.859V160.349C115.588 162.422 112.025 163.804 110.406 164.236H132.756C128.092 164.236 126.494 160.565 126.278 158.73V119.859L128.221 117.267L134.052 115H115.264L99.7162 149.336L84.8158 115H67L73.4785 117.267V160.349ZM77.3655 117.267H83.1961L98.7444 152.575L96.153 158.73L77.3655 117.267ZM126.278 117.267H118.504V162.293H123.686V119.859L126.278 117.267Z" fill="#3F3A37" stroke="#3F3A37"/>
<path fill-rule="evenodd" clip-rule="evenodd" d="M10.4785 135.349C9.4419 137.422 5.72759 138.804 4 139.236H19.2244C14.3007 138.2 13.2858 136.213 13.3938 135.349V94.8588L33.153 139.236L53.8841 94.8588V135.349C52.5884 137.422 49.0253 138.804 47.4056 139.236H69.7563C65.0918 139.236 63.4938 135.565 63.2779 133.73V94.8588L65.2214 92.2675L71.052 90H52.2645L36.7162 124.336L21.8158 90H4L10.4785 92.2675V135.349ZM14.3655 92.2675H20.1961L35.7444 127.575L33.153 133.73L14.3655 92.2675ZM63.2779 92.2675H55.5037V137.293H60.6865V94.8588L63.2779 92.2675Z" fill="#3F3A37" stroke="#3F3A37"/>
</svg>
